<?xml version="1.0" standalone="no"?><!-- Generator: Gravit.io --><svg xmlns="http://www.w3.org/2000/svg" xmlns:xlink="http://www.w3.org/1999/xlink" style="isolation:isolate" viewBox="0 0 1000 1000" width="1000" height="1000"><defs><clipPath id="_clipPath_KPxRFm4bVmfAJyxZdDLftRPv7cJLOYJs"><rect width="1000" height="1000"/></clipPath></defs><g clip-path="url(#_clipPath_KPxRFm4bVmfAJyxZdDLftRPv7cJLOYJs)"><path d=" M 127 318 Q 196 425 237 555 Q 247 580 278 571 Q 309 562 331 545 Q 347 529 343 518 Q 339 507 324 495 Q 299.333 471.333 289 449 Q 321.75 442.75 343 425 Q 366.715 405.191 375 390 Q 398 358.333 392 323 Q 386 287.667 358 260 Q 327.643 229.856 289 225 Q 265.125 222 237 227 Q 196.333 234.667 146 269 C 127.667 281 113.667 290 127 318 Z " fill="rgb(255,255,255)" vector-effect="non-scaling-stroke" stroke-width="1" stroke="rgb(0,0,0)" stroke-linejoin="miter" stroke-linecap="square" stroke-miterlimit="3"/><path d=" M 217 322 Q 238.333 369 261 400 Q 290.667 387.333 292 369 Q 293.333 350.667 288 338 Q 278.667 317 265 309 Q 251.333 301 232 309 Q 220.333 315.667 217 322 Z " fill="rgb(255,255,255)" vector-effect="non-scaling-stroke" stroke-width="1" stroke="rgb(0,0,0)" stroke-linejoin="miter" stroke-linecap="square" stroke-miterlimit="3"/></g></svg>